<svg xmlns="http://www.w3.org/2000/svg" viewBox="0 0 100 100">
  <defs>
    <linearGradient id="flameGradient" x1="0%" y1="0%" x2="100%" y2="100%">
      <stop offset="0%" style="stop-color:#ff6b35;stop-opacity:1" />
      <stop offset="50%" style="stop-color:#f7931e;stop-opacity:1" />
      <stop offset="100%" style="stop-color:#ff4757;stop-opacity:1" />
    </linearGradient>
  </defs>

  <!-- Flame shape -->
  <path d="M50 10c-5 0-10 5-10 15 0 10 5 20 10 25s10-15 10-25c0-10-5-15-10-15z" fill="url(#flameGradient)"/>
  <path d="M45 20c-2 0-4 2-4 6 0 4 2 8 4 10s4-6 4-10c0-4-2-6-4-6z" fill="#fff" opacity="0.3"/>

  <!-- Streak lines -->
  <rect x="35" y="45" width="30" height="3" fill="#ff6b35" rx="1.5"/>
  <rect x="35" y="52" width="25" height="3" fill="#f7931e" rx="1.5"/>
  <rect x="35" y="59" width="20" height="3" fill="#ff4757" rx="1.5"/>
</svg>